<?xml version="1.0" encoding="UTF-8"?>
<svg id="Layer_1" data-name="Layer 1" xmlns="http://www.w3.org/2000/svg" version="1.1" viewBox="0 0 2500 2500">
  <defs>
    <style>
      .cls-1 {
        fill: #8e8e8e;
        fill-rule: evenodd;
        stroke-width: 0px;
      }
    </style>
  </defs>
  <path class="cls-1" d="M1249.7,2410.7c-648.1-.3-1173.3-520-1173.3-1160.8S601.9,89.1,1249.7,89.3c648.7,0,1173.9,519.7,1173.9,1160.5s-525.5,1160.8-1173.9,1160.8ZM287.3,1806.6l21-16.3c-60.7-111.2-84-185.3-110.6-267.6-2.3-6.1-3.8-10.2-6.4-13.7-1.8,4.7-.9,8.8-.6,14,16.9,89.9,57.8,203.1,96.6,283.6h0ZM1266,204.6l159.6,928.2-166.9,97.8-5.5-1025.7c0-12.3-8.2-12.3-9.9,0l-94.3,972.9-70-40.6,150-932.3c-581.3,3.5-1040.3,470.1-1040.3,1046.7s57.2,373.5,139.5,522.6l732.4-609,70.3,40.3-822.3,590.9c-19.8,14-14,20.7,7.9,8.8l918.3-530.5v190.9l-886.8,338.5c185.6,303.2,514.7,496.4,898.8,496.4s717.9-193.5,903.4-496.1l-885.3-338.2v-190.9l883.3,509.5c20.1,11.1,26,5,7-8.5l-786.4-570.5,70.3-40.3,731.9,609.6c84-150,139.5-341.7,139.5-525.2,0-569.3-473.3-1029.8-1044.4-1045.3h0ZM2367.3,1039.7c2,5.6,3.8,10.2,6.4,13.4,1.8-4.7.3-8.8,0-14C2277.2,511.6,1819.6,117.4,1252,117.4S102.9,632.4,102.9,1267.4s38.2,293,90.2,424c23.9,60.4,100.4,198.1,119,225.3,4.1,5.8,5.8,8.7,10.5,12.3-.3-5.6-.6-8.2-3.5-14.9-3.2-5.6-68.3-129.6-105.9-221.8-32.1-79.4-72.1-237.5-72.1-420.8,0-616,499.9-1115.9,1115.9-1115.9,322.2.3,625.1,157.6,810.6,361.3,141,154.7,213.9,258.6,299.7,522.9h0ZM323.5,1813l-25.4,9.4c164.9,315.2,510.7,544.2,951.6,544.2,625.6.3,1125.8-506,1125.8-1116.7s-43.2-241-67.4-307.3c-17.8-49.6-56-125.8-73-157-3.5-6.1-5.8-8.8-10.5-12.5.3,5.5.6,8.8,4.1,14.9,13.2,26,42.3,91.3,63,157,28,87.2,45.5,185,45.5,304.9,0,190.5-59.8,385.5-147.9,540.7,5,12.8.3,19.3-14.6,23.4-192.3,309.3-535.2,511.8-925.3,511.5-366.5,0-659.5-196.4-752-298.2-75.3-82.9-131-144.4-173.9-214.2h0ZM1191.6,1202.6l48.4,28.3,6.1-753.2c0-15.2-4.7-15.8-5.8-.6l-48.7,725.4ZM1276.3,1259.5l651.6,381.4c11.7,6.7,14,2.6,2.9-4.7l-604.9-405.3-49.6,28.6h0ZM1177,1233.2l-163.7,134c-9,7.6-5,11.1,5.8,5l204.3-113.2-46.4-25.7h0Z"/>
</svg>