<?xml version="1.0" encoding="UTF-8"?>
<svg id="Layer_1" data-name="Layer 1" xmlns="http://www.w3.org/2000/svg" version="1.1" viewBox="0 0 2500 2500">
  <defs>
    <style>
      .cls-1 {
        fill: #8e8e8e;
        fill-rule: evenodd;
        stroke-width: 0px;
      }
    </style>
  </defs>
  <path class="cls-1" d="M1788.6,2099.3c-142.8,130.3-265.7,200.5-524.7,336.5-241.1-109.8-398.4-218-534.8-324.6-188.6-147-324-385.7-335.7-532.1L299.3,185.8C936.5,19.9,1614.4,23.7,2200.7,196.9l-95.4,1379.2c-12.2,124.9-123.7,367.8-316.7,523.1h0ZM1996.1,1530.5l86.1-1231.6c-504.6-160.9-1109.1-163.3-1666-16.9l87.9,1247.7c9.2,129.7,102.4,328,281.2,480,107.6,91.5,318.4,245.1,474.2,303.9,179.4-90.9,342.5-203.9,471.8-315.5,160.3-146.2,255-328,264.7-467.7h0ZM1710.7,1965.6c-123.9,107-290.8,227-451.1,303.5-143.2-44.4-354.8-207.9-456.7-295.8-177.6-153.6-249.8-314.3-260.8-466.3l-86.3-1191c530.3-139.4,1109.1-139.4,1590,13.9l-85.3,1175.1c-12.3,156.3-84.9,305.7-249.8,460.5h0ZM495.4,339.2l17.1,205.3c506.2-126.7,1036.5-114,1476.6,19.3l18.9-208.9c-456.1-140-1009.8-147.6-1512.6-15.7ZM1754.2,415.4l-114.2-18.9-4.4,53.7-37.2-5.6,8.7-142.4,38,5.6-4,54.7,115.8,18.7,3.8-54.7,38.8,7.4-11.7,142.8-37.8-7,4.2-54.3h0ZM1203.2,367.1c-13.9,0-25.1-3.8-32.4-16.1-6.4-10.1-6.4-43.2,0-54.1,7-12.7,19.5-16.3,29.8-16.3l161.9.2.4,35-153.1-.2c-7.6,0-7.8,16.9.6,16.9h120.7c14.1,0,26.7,8.5,30.6,19.7,4.4,11.9,3.6,39,0,50.1-3.4,11.1-16.1,17.3-32,17.3h-159.7l-.2-35.8h142.2c4.6-.4,8.1-4.4,7.7-9-.3-4.1-3.6-7.4-7.7-7.7h-108.8ZM1109.6,381.3c-.1-7.4-6.2-13.3-13.6-13.1,0,0-.2,0-.3,0l-107.4,7.8,2.2,53.3-34.8,3.6-7.4-140.6,159.9-11.9c20.7-1.6,32.8,13.9,33.8,26.9,1.2,15.3,1.8,35-10.2,43.2,10,7.4,12.5,18.3,12.7,33.6l.4,36-34.8,1.4-.6-40h0ZM1086.8,335.7c13.7-.8,12.5-22.1,0-20.9l-102.2,7.8,1.2,19.5,101-6.4ZM751.8,317c32.8-7.8,100-18.5,135.2-21.1,16.1-1.2,28.6,7.2,30.8,19.7,5.2,28.8,8.4,58.7,4.8,98.7-1,11.5-10.9,20.7-24.1,23.5-45.1,9.9-95.9,15.3-133.5,18.9-9.5,1-24.7-6.6-27.2-18.5-6.6-29.1-8.9-69.6-7-97.5.8-10.4,10.3-21.3,20.9-23.7h0ZM879.6,402.6c4.6-1,6.6-6,7-9.5,1.6-10.9.2-39.6-2.4-49.1-.8-3.8-4-6.2-11.1-5.6-19.5,1.2-71,8.6-96.5,14.1-6.8,1.6-9.4,5.6-9.7,9.1-1.2,9.4,1.6,35,4,49.3.6,3.4,5,5.8,8.4,5.6,34.4-2.8,75-8.4,100.4-13.9h0ZM1443.6,322.9c-7.6-.2-12.7,4.4-13.3,8.4-1.8,11.7-2.4,26.8-2.4,46.5s4.4,9.7,8.2,10.3c34.2,4.8,100.6,10.8,136.8,13.1l-2.2,36.8c-47.5-2.2-97.3-9.7-148.8-13.3-16.9-1.2-29.2-10.3-29.8-26.6-1-26.9.6-67.4,5.4-91.1,3.2-14.5,17.1-22.1,32.8-21.7,47.5,1.8,85.3,6,147.6,14.3l-2.4,36.6c-30.2-2.6-87.5-11.6-131.9-13.3h0ZM665.3,333.6c48.1-11.3,55.5,74.2,15.3,84.1l-112.2,28.1,5.4,55.3-35.2,9.4-12.5-144,139.2-32.8h0ZM664.7,389.6c11.5-2.6,9.9-23.3-2.4-20.7l-101.2,24.5,2.4,21.3,101.2-25.1ZM1855,436.7l-2.4,23.1,111.2,28-3,32.2-149.2-35.2,12.9-145,150.2,36.4-3.4,33.8-111.8-27.1-2.2,24.5,111,27-2.8,28.6-110.6-26.4h0ZM779.1,849.4c-15.5,20.7-29.8,52.5-36.6,79.6-2.4,9.2-2.4,12.5-.8,18.5,14.7-6.6,33.8-12.9,44.9-16.5,4.4-9.7,6.8-20.9,10.5-29.8,6-13.9,9.7-19.9,15.9-29.6,17.7-27.4,55.1-54.5,82.7-53.9-9.2,8-28.2,27.8-35.8,39.8-6.2,9.9-11.9,20.7-16.3,31.8-3.8,10-5,17.3-6,25.5,14.3-4.2,28.4-7.2,37.6-7.8,6.2-3.4,8.2-10,11.5-16.1,10.5-19.7,31.2-41.8,44.4-48.9,10.5-5.8,26.1-11.3,37.2-7.8-11.9,8.9-24.5,23.3-30,31.8-5.8,9.1-15.1,26.9-14.7,35.2,9.8.8,23.7,0,29.2-1.4l-.6-27.5,285.8-.2-.2-391.1c-222.4,0-466,21.1-724.4,93.3l53.3,734.5h385.3v-143.6c-15.5-11.5-87.5-19.9-131.9-2.6-10.7,4.2-45.7,19.3-61.7,31.8l-44.7,35.4c-4.4,3.6-4.8,11.3-4.8,17.3,0,13.1-15.3,23.1-23.9,20.3-7-2.4-16.5-3.8-25.3-1.8-9.4,2-17.7-9.8-18.5-16.5-1.2-8.4,5.4-19.3,5.8-22.9.4-3.4-1.8-16.7,10.5-24.9,5.6-3.6,13.3-3.4,18.9-.4,1.6.9,3.5,1.2,5.4.8,2-.8,7.4-5.6,8.8-6.8.6-8-.6-20.5.2-27.4,1.8-13.5,2.6-21.3,6.8-34.4,3.6-11.3,11.3-27.8,17.1-37.2,10.3-16.9,30.8-33.2,46.2-31.8-6,8-8,12.1-12.3,20.3-8.2,14.9-15.7,39.6-19.3,56.3-2.4,10.7-3.6,19.1-3,30.4,11.7-8.7,24.1-15.9,32.2-20.5,3.8-19.7,11.5-41,19.9-56.7,9.9-18.9,36.8-39.4,54.3-37.8-16.5,17.9-28.3,42.8-32.6,58.7-1.8,6.4-4,13.7-3,17.7,6.5-3.6,20.1-7.2,26.6-7.8,4.4-10.9,10.3-24.1,15.3-31.8,15.5-23.9,40-38.4,53.9-37.8-10.9,14.7-20.3,28-27.1,47.7-2,5.8-3,11.9-3,14.9,8.5-1.4,21.9-1.4,27.2-1.4,9.9-8.9,17.1-19.7,29-28.8,9.9-7.8,28.4-18.3,32.8-19.1v-120.7c0-2.6-31.6-5-47.3-3-41.8,5-146.2,37.8-190.3,68.2-1,2.6-.8,17.1-3.8,23.9-2.6,6.2-9.1,12.5-15.5,15.3-11.3,5-24.5-10.1-30.2-8-6,2.2-18.7,7.4-32.4-2.4-6.2-4.4-9.3-16.7-7.2-25.8,2-6.6,7.6-11.7,11.9-15.9,4-4,1.2-19.3,15.5-28.4,10-6.4,23.7-1.2,34.2,4.4,2.1-.7,4.1-1.8,5.8-3.4,1.4-4.2,3.6-16.9,5.6-26.9,2.4-10.8,3.2-17.7,6.4-27.6,8-24.1,27-58.7,47-76.8,15.7-13.9,40.2-25.1,58.3-23.9-1.8,2.7-24.3,22.9-30.8,31.8h0ZM825,614c15.1-21.1,54.9-52.9,85.5-51.1-16.7,14.5-31.4,30.6-41.8,47.7-13.5,22.1-24.5,49.7-26.8,71,10.1-3.8,34-10.5,47.7-13.5,12.1-26.5,28.1-55.7,47.8-71.4,14.1-11.3,34.4-21.1,53.3-18.9-4.4,6.2-11.5,10.9-16.9,15.9-9.7,8.5-16.5,20.1-21.9,31.8-4,8.7-10.7,35-10.9,36.2,13.7-.2,38,1.4,43.2,3,16.1-21.1,51.3-51.7,93.5-44.8-18.3,9.9-51.7,39-49.7,54.9,27.4,17.7,68.4,54.9,70.2,89.3-18.7-19.5-49.5-38.8-65-44.2-37.2-13.1-81.6-14.9-118.5-8.2-77.2,14.5-145.4,47.9-210.8,87.1-1.6,10.5-7.4,26.4-12.1,31.8-4.8,5.4-11.9,10.5-19.7,11.7-9.7,1.6-19.7-2.4-28-6.8-5.4-3-19.5.8-28.4-4-6.2-3.2-15.7-12.1-13.1-26.3,2.2-12.5,14.7-20.1,16.5-32,2.6-17.5,15.3-25.1,21.9-26.3,7.2-1.4,14.5,1,21.1,4,2.8,1.4,5.8,3.8,8.4,4.6,2.6-.8,6.4-4,8.5-5,.6-2,7.2-38.4,10.7-54.3,3.6-15.9,9.7-29.5,14.9-44.4,15.5-44.1,63.4-88.7,101.9-86.3-2,2.8-14.3,11.7-31.4,31.6-27.6,32.4-34.6,66.8-45,125.9,21.3-9.9,39.8-17.1,59.1-24.1,4.6-18.3,10.7-36.2,18.3-53.5,5-11.2,10.9-22.1,17.9-31.9h0ZM1984.2,662.9l-710.8.6.6,209.2,694.3-.4,15.9-209.4h0ZM1355,1746.3c-8.2,4.2-18.3,1.6-22.5-.2-7.2-3-11.9-10.4-12.5-18.9-.6-6.8,6-14.9,7.4-22.3.6-3-2.6-17.7,9.9-25.3,2.4-1.4,9.5-4,14.5-3.2,5,1,9,4.2,13.9,5,6.8-2.4,13.2-5.5,19.3-9.4,4-15.3,7-33,8.9-48.7-35.6,17.7-82.2,29.6-121.7,31.2l.2,572.3c166.1-84.4,348.3-222.4,425.8-298.2,125.5-122.3,210-246.2,223-424.9l11.7-162.7-377.3-.4c0,92.3-30.8,188.6-119,258.2-5,20.1-7.3,53.9-7,54.7,12.1-5,23.5-9.4,33.4-12.3.8-1.2,14.9-32,21.3-40.4,14.9-23.1,35-42.8,59.5-55.9,15.3-7.8,34-14.9,50.5-8.7-21.7,10.3-38.6,29-48.7,39.8-9.4,10-20.3,24.7-25.3,39.8-.7,2.6-1.2,5.3-1.6,8,10.2-3.2,42.6-8,56.1-9.8,1.6-.2,5.8-9.1,9-13.5,4-5.4,6.4-8.7,12.7-15.9,16.3-17.7,44-36.6,70.8-32.4-14.7,9.4-30.8,24.3-43.7,47.7-1.8,3.6-4.2,8.6-3.2,10.7,4,.8,23.7.4,35.6,1.8,13.7-8.5,28.2-16.1,44-19.5,17.7-4,40.8-.8,49.9,7.5-10.7-.6-20.9,1.4-30.6,5.2-5.6,2.2-16.7,7.4-20.9,14.5,10.5,3,27.9,14.3,38.8,23.5,7.6,6.4,16.7,15.5,22.5,23.9,14.5,19.7,17.5,55.1,9.7,65.7-2.2-6.2-4.6-12.3-8-18.1-7-11.7-17.9-24.5-27.3-31.4-45.1-34.4-110.2-36.2-163.3-25.5-45.5,9.4-127.7,26.5-181.4,64.6,1.4,6.8-2.8,18.1-8.9,22.5-8.1,6-19.7-2.1-25.6,1.1h0ZM1443.6,1810.6c6-9.1,13.1-22.5,16.7-28.2,12.5-20.1,30.6-35,43-40.8,16.9-8.2,44.1-12.9,56.3-7-13.3,3.2-23.5,9.4-32.8,15.9-9.5,6.6-28.3,23.7-33,30.9-5.4,8-8.9,15.1-10.3,18.9,15.1-3.4,33.2-6.2,42.6-6.2,6.8-8.6,24.7-29,38-38.6,10.7-7.6,33.6-15.1,47.9-9-13.7,4.4-38,23.5-46.9,37.2-2,3.2-3.8,6.6-4.2,8.3,7.4.6,21.3,2,28.9,3,.8,0,21.5-12.7,30.8-15.3,12.1-3.4,32-7.8,44.6,5.6-9.1.2-17.7,1-24.5,4-9.8,4.4-13.9,7.5-18.3,13.7,19.1,10.2,39,20.7,50.7,39.4,4.2,6.6,10.5,22.1,7,32.2-6-7.5-14.1-14.9-20.7-18.7-9.4-5.4-16.1-10.5-27.5-14.9-35.6-13.3-82.1-16.9-119.3-11.9-48.1,6.2-107.2,30-137.4,50.7,2,9.4-2.6,20.3-8,22.9-11.3,5.8-22.3-4-24.3-3.4-3,1-12.1,4.2-18.7,1.4-6.6-2.6-10.7-14.1-8.2-21.5,2-5.6,10-13.5,10-13.5-1.2-12.1,6.7-19.5,17.7-20.9,6.2-.6,10.5,4.2,15.5,5.2,4.6-2.2,7.8-3.8,10.1-5,2.8-9.9,7-20.1,9.8-28.4,4.6-14.1,11.3-26.7,19.9-39.8,12.3-18.9,34.2-36.8,60.3-37.2-8,6.2-12.5,9.5-17.5,15.7-8.5,10.7-15.1,20.5-21.1,32-5.4,10.2-10.4,25.3-11.1,38.6,11.3-5.4,22.7-10.5,34.2-15.3h0ZM1439.8,1918.2c6.8-2.8,13.9-4.8,21.1-4-16.7,10.7-32,26.4-36.2,45.1-.4,2-.4,6,1.4,7.1,4.8-1.2,16.9-3.8,20.1-5.4,2-4.2,6.9-10.7,10.3-15.1,11.9-15.9,29.1-31.8,52.7-25.8-15.5,7-24.5,16.7-31.2,29-1.2,2.2-2,6.4-.4,6.4,4,0,19.1-.6,21.3-.6,7-6.2,27.3-17.9,41.2-13.5-7,3.3-13.3,7.6-18.9,12.9-1.4,1.6-3.2,3.6-3.6,6,12.3,6.2,23.3,13.1,33.4,21.9,5.4,4.6,13.1,13.1,17.9,27.8-11.9-10.3-50.9-28.9-72.2-29.8-13.9-.6-31.2,2-40,4-33.6,7.6-68.2,22.7-97.9,39.6.2,5.8-.8,12.7-7.3,18.1-4.4,3.6-13.9,5.4-17.5.2-2-2.8-14.9.2-17.7-3.4,0,0-3.4-5.2-3.8-11.3-.4-6.6,4-10.5,7.6-13.9,1-1.2.8-12.3,9.1-16.1,5.2-2.4,10.3-1.6,14.7,1.2,1.8-1,3.2-2,4.4-2.8,1-12.9,3.4-24.9,8.2-37.8,6.6-18.3,28-40.6,46.5-39.8-12.5,13.5-22.7,32.2-26.1,47.8-1,5-1.4,14.7-1.4,19.3,4.4-2.7,9.1-5,13.9-6.9,2-4.8,7.8-16.7,10.7-22.1,7.5-14,24.4-31.8,39.6-38h0ZM585.8,1524.8c2.4,69.2,30.6,152.8,69.4,210.6h578.6l-1.2-80.7c-74.4,0-188-49.1-232.9-129.5l-413.9-.4h0ZM983.6,1344.3c0,368,538.2,368,538.2,3.8l.2-442.8-538.4-.2v439.2ZM1157,1168c6.4-7,11.9-16.1,13.1-23.9,1-6.4-16.9-6-23.5-2-3.6,2.2-7,6.6-9.8,10.5-2,3-9.1,5.4-12.7,2-3.8-3.6,3-9.8,2.8-13.5,0-6.4-12.1,3.2-17.7.6-3.8-1.8-4-7.5-1.4-10.9,1.4-1.8,5.4-1,7.2-3,1.8-2,1.8-5,2.4-7.6.8-3,4-4.4,6-6.6,7.6-7.4,21.9-19.9,24.7-19.7,6.5.6,15.9,4,21.7,1,1.2-.6,3.4-2.6,1.4-3.8l-15.5-10.2c-.1-3.2,1.2-6.4,3.6-8.6,7.2-6.4,18.3-2,27.7-3.4,6.6-1,12.7-3.6,17.5-8.1,1.2,4.8-1.8,9.5-1.8,14.5,6,5.6,12.1,10.3,17.9,15.7,17.1,17.1,24.5,42,25.7,63.9,1,10.1,1,20.5,1,37.4,2.8-7.2,4.6-17.7,5.2-26.9,2.6-27.1-1.6-51.1-16.9-71.6-6.2-8.6-13.3-16.6-21.1-23.9.8-8,7.6-21.5,13.9-16.5,4.2,3.2-2,8,2.4,10.7,4.8,3,11.7,2.6,14.7,2,7-1.8,13.7-3.6,20.1-4.2,3-.2,8-1.6,9,1.4.8,2-1.4,3.4-3.6,4.2-2.6.8-6.6.2-8.7,2.4-1.8,1.8-3.6,3.8-3,6.4.8,3,4,4.6,7.2,3.6,12-3.3,24.3-5.2,36.8-5.6,6.6,0,5.2,4.8,2,6.6-2.2,1.2-5.6,2.2-7.8,2.4-11.7,1.4-20.5,2.2-19.1,8.9,1,4.6,8.4.2,9.9,3.6,1.8,3.6-3.2,5.6-2.8,8,1.2,7.6,15.7,6,22.5,4.4,5-1.2,12.9-5.2,15.3-2,2.2,2.8.4,7.2-2.4,8-7.2,2-19.5,5.6-22.9,9.5-3.2,3.8.6,11.5,4.4,11.9,8.6,1,17.9,1,24.7,3,2.6.8,4.8,2.6,4.8,5.4s-3,4-5.4,4.8c-4.6,1.4-12.3,1.4-16.5,3.2-1.4.6-4.2,1.6-3.8,3.2,1.2,3,7.2,2.2,12.1,2.8,2.8.2,8.2,2.4,8.2,5.4s-2.8,4.2-7.8,3.8c-7.8-.6-14.9.4-18.3,1.8-1,.4-7,1.2-6.8,4,.4,3.4,6.8,1.2,8.4,4.6,1.4,3.2-3,5-3.4,8.9,0,1.6.8,2.4,2.4,3,5.2,2.2,11.1,2,16.3,1,5.4-1,7.3,6.2,6,7-6.9,3.8-22.5-.2-26,2-5,3.2,8.3,10.3,8,11.9-.4,1.8-2,3.6-3.2,4-6.8,2.6-15.5-2.4-20.5.4-4.2,2.6-2.4,9.1-5,12.5-3.2,4.2-10.3,2.4-13.5,4.8-4.2,3-4.4,10.1.2,14.5,3.6,3.4,7,5.7,11.5,8,20.7,10.3,42.2,20.7,62.3,19.3,10.3-.6,27.3-1.2,36.6,1.2,12.1,3,24.5,12.3,30.8,16.3,5.2,3.2,13.5,4,20.1,1.6,4.8-1.6,8-7.1,7-11.9-3-15.9-29.3-20.9-29.6-36.8-.4-18.3-2-28.2-8-39.8-2.2-4.4-2.6-14.5,2.6-15.9,4.2-1,5.6,4.8,8.9,3.4,15.3-6,15.9-30.2,31.8-34.8,9.3-2.6,40.8-3,38.2-7-6.6-9.4-3.6-20.1,0-25.1,2.4-3.2,8.9-6.4,11.6-3.2,3.6,4.2-5.4,9.1-4.8,15.3.6,5.8,9,16.9,2.6,22.9-3.8,3.6-32.2,4.8-40.6,17.5-5.2,7.7-5.7,13.9.4,13.3,5-.6,9.1-6.6,13.7-9.9,8.2-6,14.7-8.4,19.3-4,2.4,2.2-.8,6.4-5.2,7.6-3.6,1.2-12.3,10.5-9.9,12.9,3.6,3.8,23.5-13.5,28.4-9.9,2.6,2-9.8,14.7-7.6,18.1,2.6,4.2,10.9-2.4,13.5.8,3.8,4.8-6.6,14.1-12.5,18.3-4.6,3-2.8,14.1-9.4,17.5-7.3,3.6-10.7,9.9-9.9,10.9.8,1.6,2.6,2.8,5.4,1,8.2-5.2,18.3-11.3,22.5-9.7,2.4,1-1,12.3-4,17.7s12.1,2.4,9.9,7c-1.6,3.4-2.6,8.6-1.6,13.3,1.2,6.2-16.3,7.5-17.9,11.7-1.8,4.8,1.8,6,3.6,6.2,10.6,1.6,9.2,11.3,5,15.5s-15.1,7.8-23.5,6.4c-7.2-1.2-23.3-4.2-32.8-11.3-3-2.2-7.4-.6-8,2.4-.6,3.4,3,9.5,4.6,14.7,2.2,7.8,1,17.5-1.6,25.1-5.6,15.7-20.5,28.8-24.6,47.7-1,5,.4,11.1,2.4,15.9,4.4,10.4,10.7,20.1,17.9,28.9,1,2.8,2.4,6,1.2,8.5-1.6,4-13.9,12.5-17.5,15.9-11.3,10.5-21.1,24.3-23.3,39.2-.8,5.4-12.3,10.7-20.1,12.9-5.7,1.6-11.7,3.2-16.5,7-.6,4.4,2,8.2,2.6,12.5,1,7.6-8.5,11.3-15.9,13.7-3.4,1.2-7,2.2-10.9,2.2s-1.8-2.4-1.6-3.6c2.2-10.3,4.2-18.7,8.1-27.2,1.6-3.2,4.2-5.8,6.8-8l28.4-23.9,22.3-32c2-3,2.8-5.6,2.8-7.8,0-6.2-2.6-11.9-7-15.9-5.6-5-13.7-5.8-19.9-9-8-4-19.5-15.1-21.1-15.9-4.4-2.2-6.9,5.8-7.5,10.3-1,7,1.2,13.5,1,20.5,0,3.2-.4,5-2,7-18.7,10.7-42,14.7-55.7,31.8-2.4,3-4.6,6.2-7.8,8.4-7.8,5.4-20.7-.8-26.5,7.5-2.6,3.8.4,8.8-.6,12.9-.6,2.4-5.2,5.6-8.8,7.3-4.8,2.2-9.9,3.4-15.1,3.8-5.8-2.8-2.2-10.9-.2-16.7,2-6,4.8-11.9,9.4-15.9,6.8-6,15.3-13.5,20.7-16.1,4.6-2.2,11.5-2.2,17.1-4.4,5.9-1.8,11.4-4.5,16.5-8,8.1-5.2,15.7-11.5,20.3-20.3,5.2-10,4.6-23.3-2-31.8-6-7.8-12.9-15.3-16.9-24.1-2.2-4.8-.6-11.3,2.8-15.7-.2-.2-2.6-1.8-4-1.4-28.5,1.2-57.3-2-83.7-12.5-7-2.8-14.1-11.8-19.1-12.3-4.6-.6-7.4,5.2-11.9,6.4-7.4,2-16.9.8-25.5,0-9.9-1-30.6-5.4-45.5-10.1-2.4.4-5,.8-7.2,2.2-3.2,2.2-3.8,7-4,10.9-.4,5.4,1.2,10.3.6,15.9-.2,2.8-1.8,5.8-1,8.4.8,3.2,4,4.6,6.2,6.6,3.6,3.4,4.2,10.3,4.2,15.9s-2.2,14.3,3,18.5c3.2,2.6,7.6-.8,11.5,0,4.4.8,5.8,6.2,6,10.3.2,4.8-3.8,14.9-6.4,17.5-1.8,1.8-4.8.4-7-.6-5.8-2.6-11.1-6.8-14.3-12.3-1.4-2.4-1.4-5.4-2.8-8-2.2-4.4-6.2-6.9-10.1-9.9-4.8-3.6-5.8-10.2-6.6-15.9-.6-5.4.4-10.6.8-15.9,1-10.6.4-21.4-2-31.8-1.8-8-6.2-15.9-4.2-23.9,1-3.8,3.6-7.4,7.2-9,19.2-.9,38.3-4.2,56.7-9.9l-11.9-11.8c-3,0-5.4,3-8.4,3s-7.6-4.6-8.8-6.2c-6.2-9.1-10.1-19.7-12.9-30.5-2.6-4.2-5.8-8.3-10.5-10.3-3.3-1.4-6.9-2.1-10.5-2-9.9,4.4-19.1,12.9-19.9,23.9-.2,2.8,1.4,5.2,1,8-.6,4.8-4.2,8-7.6,11.3-3.4,3.4-6.6,6.8-8,11.5-1.2,4,.2,8.2,2,11.9,1.2,2.6,2.6,5.2,1.6,8-2.4,6.6-18.1,13.3-22.7,13.3s-3-2.2-3.6-4c-1.8-6-1.4-12.3-.2-18.3,4.2-4.6,7.3-10,9.1-15.9,2.4-8,1.2-16.5,5-23.9,9.9-16.9,35.4-50.7,40.4-55.7,2.2-2.2,7.6-3.4,9.8-2,10.7,7,17.1,15.5,27.4,20.9,5.6,2.8,12.5,7,17.5,3,5-4,5.8-30.6,8.9-37.4,5.8-11.7,21.9-27.3,33.1-39.8h0ZM1355,1002.3l-4.4,16.7h-15.9l20.7-78.4h18.1l19.9,77.8h-15.9l-4-16.1h-18.5ZM1371.3,988l-7.2-31.4-6.8,31.4h13.9ZM1313.2,963.1c.2-5.2-1.4-11.9-5.6-13.5-4.4-1.6-9-.2-10.9,2.8-3.4,5.6-3.4,13.1-3.2,24.7,0,7,.2,16.7,1.6,21.3,3.4,10.5,12.3,11.1,16.7,4.6,2.2-3.2,2.2-9.4,2-14.9h-9.2v-11.5h23.7v42.2h-11.3v-5.8c-.2.4-5.2,4.2-7.6,5.4-4,1.8-11.5,1.8-17.7-.8-5.2-2.2-10.2-9.1-12.3-18.1-2.2-9.4-1.2-21.5-1.2-31.8.2-10.9,6-23.1,13.9-27.7,5.6-3.2,15.9-3.2,22.5-.8,8,2.8,14.1,14.3,12.9,24.1h-14.3ZM1046.7,941.8c6.4,4,9.7,11.3,8.6,19.9h-12.5c0-8-3.4-11.7-10.1-11.9-4.2-.2-9.4,4.6-9.4,8.2-.2,10.5,9.1,12.7,15.5,14.7,4.8,1.4,10.5,4.4,13.3,8.6,5.2,7.6,5.8,15.5,1.6,25.9-2,5-9.5,10.9-15.9,12.3-7.2,1.6-15.9.8-23.1-4.6-5.8-4.4-8.4-12.9-7.2-20.7h14.1c0,3.8.6,6.6,2.2,8.9,1.2,1.6,3.4,4.2,7.2,4.4,5.6.4,10.6-3.8,11-9.5,0-.6,0-1.2,0-1.9-.8-12.1-21.1-12.9-28-20.7-8.4-9.5-5.8-24.9,1-31,9.4-8.7,22.1-8.7,31.8-2.6h0ZM1448.4,993.7c.2,3,.4,13.5.8,20.3.2,2,2.2,4.6,2.2,4.8h-14.9c-2,0-2.2-3.6-2.4-6.5-.4-8,.4-26.8-7.4-26.8h-9.5v33.2h-14.9v-77.6h26.8c13.5,0,20.3,7.8,20.3,18.3s-.2,15.1-8.2,18.5c4.2,4,6.5,9.9,7.2,15.9ZM1427.9,952.2h-11.1v20.9h8.2c13.5,0,13.3-20.9,3-20.9ZM1092.1,1018.9h-14.9v-65.4h-17.1v-13.1h49.3v13.1h-17.3v65.4h0ZM1188.1,1018.9v-65.4h-17.1v-13.1h49.5v13.1h-17.5v65.4h-14.9ZM1227.3,940.3h49.5v13.3h-17.5v65.2h-14.9v-65.2h-17.1v-13.3ZM1486,953.7v65.4h-14.9v-65.4h-17.1v-13.3h49.3v13.3h-17.3ZM1148.4,996.3v-55.9h14.5v54.5c0,32.6-47.3,32.6-47.3,1v-55.5h14.5v56.1c0,12.1,18.3,12.1,18.3-.2h0ZM1181.9,1055c4.4-3.8,10.5-8.9,17.7-13.5,6.4-4.2-.8,5.4-1.2,9.4-1.2,10.7-9.4,11.9-18.3,9.9-1.6-.4-1-3.4,1.8-5.8h0ZM1555.9,1305.8l379.9-.2,16.9-210-396.8.2v210h0ZM1235.6,1960l-391.8-.8c80.7,72.6,267.7,208.5,390.6,263.5l1.2-262.8h0ZM951.9,1090c-7.6,6.8-22.7,23.5-25.7,31,6.6,2.4,19.5,8.2,25.7,12.3v-43.4h0Z"/>
</svg>