<?xml version="1.0" encoding="UTF-8"?>
<svg id="Layer_1" data-name="Layer 1" xmlns="http://www.w3.org/2000/svg" version="1.1" viewBox="0 0 2500 2500">
  <defs>
    <style>
      .cls-1 {
        fill: #8e8e8e;
        fill-rule: evenodd;
        stroke-width: 0px;
      }
    </style>
  </defs>
  <path class="cls-1" d="M1180,1903.9c-117.2-73.4-203.5-326.7-203.5-627.7s0-22,.3-32.8h0c-325.9-51.1-561.4-191.4-567.5-357.4l-.9,2c-79.7,99.1-125.3,213.7-125.3,335.8,0,359.3,394.4,653.7,894.7,679.8l2.1.4ZM132.5,1250c0-402,500.3-728,1117.5-728s1117.6,326,1117.6,728-500.3,728-1117.6,728S132.5,1652,132.5,1250h0ZM1250,627c119.2,0,220.5,180.8,258.1,433v-.4c231.9-36.1,394.2-119.3,394.2-216.2s-292.1-235.3-652.3-235.3-652.3,105.3-652.3,235.3,162.3,180.1,394.1,216.2v.4c37.7-252.2,139.1-433,258.2-433h0ZM1322.2,1903.5c500.3-26.1,894.8-320.4,894.8-679.8s-45.6-236.7-125.3-335.8l-1-2c-6,166-241.5,306.3-567.5,357.5h.1c.2,10.7.3,21.6.3,32.7,0,301-86.4,554.3-203.5,627.7l2.1-.4ZM1250,1078.7c51.7,0,103.4-2.1,155-6.6h0c-24.7-161.6-84.7-275.7-154.9-275.7s-130.1,114.1-154.9,275.8h0c51.5,4.4,103.2,6.6,154.9,6.6h0ZM1250,1677.4c89.7,0,162.9-186.7,166.8-420.8h.5c-111.3,10.4-223.2,10.4-334.5.1h.5c3.9,234,77,420.6,166.7,420.6Z"/>
</svg>